# xmcd
# Copyright (C) 1995-1998 Ti Kan
#
# Track frame offsets:
#       150
#       5017
#       31175
#       53717
#       94071
#       114229
#       144178
#       176654
#       206063
#       227003
#       246762
#
# Disc length: 3582 seconds
#
# Revision: 0
# Processed by: cddbd v1.5.2PL0 Copyright (c) Steve Scherf et al.
# Submitted via: CD-Import v1.0
#
DISCID=870dfc0b
DTITLE=Steem - Empty Sun
DYEAR=08
DGENRE=
TTITLE0=3,4
TTITLE1=No Echoes
TTITLE2=Alone Together
TTITLE3=Turning In Mid Air
TTITLE4=Take It Away
TTITLE5=Glooming Light 
TTITLE6=Diunce
TTITLE7=Drinking Coffee
TTITLE8=Feet Walking By
TTITLE9=Warmth
TTITLE10=Earth, Jupiter and Mars
EXTD=
EXTT0=
EXTT1=
EXTT2=
EXTT3=
EXTT4=
EXTT5=
EXTT6=
EXTT7=
EXTT8=
EXTT9=
EXTT10=
PLAYORDER=
